<?xml version="1.0" standalone="no"?>
<!DOCTYPE svg PUBLIC "-//W3C//DTD SVG 20010904//EN"
 "http://www.w3.org/TR/2001/REC-SVG-20010904/DTD/svg10.dtd">
<svg version="1.0" xmlns="http://www.w3.org/2000/svg"
 width="700.000000pt" height="700.000000pt" viewBox="0 0 700.000000 700.000000"
 preserveAspectRatio="xMidYMid meet">
<metadata>
Created by potrace 1.14, written by Peter Selinger 2001-2017
</metadata>
<g transform="translate(0.000000,700.000000) scale(0.100000,-0.100000)"
fill="#000000" stroke="none">
<path d="M1889 6996 c-2 -2 -37 -6 -77 -10 -41 -3 -77 -8 -80 -10 -4 -2 -29
-6 -57 -10 -27 -3 -84 -15 -125 -26 -41 -12 -84 -23 -96 -25 -54 -12 -243 -89
-341 -139 -203 -104 -350 -212 -519 -380 -271 -271 -463 -619 -544 -985 -19
-88 -24 -115 -39 -236 -12 -88 -12 -3244 -1 -3340 15 -123 20 -158 46 -265 23
-100 47 -181 65 -225 5 -11 18 -45 29 -75 57 -146 201 -390 307 -518 134 -163
340 -342 523 -455 174 -107 437 -212 635 -253 194 -40 124 -39 1860 -39 908 0
1679 3 1715 7 213 24 459 95 665 194 44 21 82 40 85 43 3 4 18 13 35 21 34 18
199 127 234 155 268 219 439 431 581 720 78 159 142 340 165 465 1 8 6 33 10
55 29 151 30 231 30 1865 0 1537 -1 1641 -18 1740 -39 226 -90 385 -184 579
-259 537 -740 934 -1310 1081 -118 31 -137 35 -212 46 -25 4 -55 9 -66 12 -21
7 -3309 15 -3316 8z m1602 -1086 c18 -10 19 -24 19 -319 l0 -309 -75 -86 c-93
-106 -96 -108 -484 -501 -467 -474 -533 -546 -569 -629 -59 -133 -60 -304 -2
-416 81 -157 327 -256 490 -197 110 40 193 110 464 395 64 66 64 66 86 52 12
-7 14 -61 15 -337 1 -180 -2 -335 -6 -344 -5 -9 -41 -42 -81 -75 -172 -139
-361 -212 -563 -218 -209 -7 -375 39 -545 148 -214 138 -363 366 -410 627 -12
64 -14 219 -5 274 46 263 124 397 398 680 115 118 487 502 566 583 41 43 178
184 305 315 127 131 258 267 291 302 62 67 73 72 106 55z m913 -965 c76 -8
203 -48 286 -90 262 -132 460 -406 498 -690 11 -80 7 -256 -7 -310 -7 -27 -15
-61 -18 -75 -9 -52 -68 -178 -118 -255 -82 -125 -171 -213 -404 -400 -264
-210 -285 -229 -387 -330 -164 -163 -239 -285 -258 -415 -20 -142 -24 -191
-32 -410 -7 -179 -8 -554 -4 -758 1 -46 -2 -87 -6 -92 -5 -4 -97 -76 -204
-159 -205 -160 -237 -175 -250 -122 -13 55 1 1664 15 1735 29 149 129 303 305
472 91 87 160 145 350 289 80 60 150 114 156 120 6 5 30 25 55 44 24 19 73 68
109 108 180 205 233 405 151 575 -77 158 -238 247 -432 236 -141 -8 -206 -54
-439 -309 -169 -185 -166 -182 -194 -153 -14 13 -16 58 -16 342 l0 326 69 67
c210 203 470 288 775 254z"/>
</g>
</svg>
