<?xml version="1.0" standalone="no"?>
<!DOCTYPE svg PUBLIC "-//W3C//DTD SVG 20010904//EN"
 "http://www.w3.org/TR/2001/REC-SVG-20010904/DTD/svg10.dtd">
<svg version="1.0" xmlns="http://www.w3.org/2000/svg"
 width="574.000000pt" height="574.000000pt" viewBox="0 0 574.000000 574.000000"
 preserveAspectRatio="xMidYMid meet">
<metadata>
Created by potrace 1.14, written by Peter Selinger 2001-2017
</metadata>
<g transform="translate(0.000000,574.000000) scale(0.100000,-0.100000)"
fill="#000000" stroke="none">
<path d="M4945 5702 c-1 -2 -150 -5 -331 -8 -181 -2 -453 -6 -604 -9 -151 -2
-446 -7 -655 -11 -632 -10 -735 -12 -852 -19 -105 -5 -188 -12 -188 -15 0 -1
-15 -3 -33 -6 -62 -8 -200 -45 -274 -73 -79 -31 -187 -80 -203 -93 -5 -5 -32
-23 -60 -40 -27 -18 -52 -35 -55 -38 -3 -3 -24 -19 -48 -36 -79 -58 -272 -258
-272 -282 0 -5 -8 -17 -18 -28 -23 -24 -80 -122 -116 -199 -60 -125 -107 -290
-124 -425 -12 -103 -5 -391 11 -417 3 -4 8 -30 11 -57 4 -27 11 -56 16 -65 4
-9 9 -20 9 -26 10 -64 84 -236 141 -327 27 -43 50 -81 50 -84 0 -3 6 -11 13
-19 6 -7 28 -32 46 -56 37 -47 154 -166 209 -212 176 -149 460 -273 692 -303
19 -2 51 -6 70 -9 19 -2 69 -7 110 -10 l75 -6 375 376 c206 206 377 380 378
385 2 6 10 10 18 10 8 0 14 5 14 11 0 7 -10 9 -25 7 -14 -3 -25 -1 -25 4 0 5
-5 6 -10 3 -13 -8 -265 -17 -525 -18 -258 -1 -347 8 -475 48 -74 23 -151 69
-199 118 -49 50 -121 148 -121 163 0 4 -6 15 -14 23 -17 20 -63 153 -72 206
-10 64 -11 129 -2 147 4 9 4 18 -1 20 -14 6 37 151 76 215 46 74 80 112 158
179 134 113 258 167 410 179 33 3 83 8 110 10 28 3 280 7 560 10 1376 14 1426
15 1575 31 36 3 71 7 78 7 11 0 214 200 612 601 l145 147 -329 -3 c-180 -2
-329 -4 -331 -6z"/>
<path d="M4242 4200 c-41 -5 -59 -22 -435 -397 -374 -374 -398 -401 -346 -395
4 1 74 4 155 6 82 3 149 6 149 6 0 4 299 14 420 14 205 1 301 -15 373 -60 12
-8 22 -12 22 -8 0 3 19 -9 42 -28 69 -53 90 -72 107 -92 9 -10 31 -35 49 -55
33 -36 97 -156 119 -221 21 -60 25 -92 27 -193 5 -198 -85 -381 -237 -486 -92
-63 -290 -144 -382 -155 -133 -18 -173 -20 -290 -20 -113 -1 -236 8 -300 20
-21 4 -70 11 -137 19 -24 3 -54 8 -68 10 -14 3 -45 7 -69 10 -23 3 -55 7 -70
9 -29 5 -181 24 -251 31 -234 25 -590 26 -705 1 -11 -2 -42 -7 -69 -10 -27 -4
-53 -9 -58 -12 -4 -3 -16 -7 -25 -9 -74 -14 -273 -99 -273 -116 0 -5 -6 -9
-12 -9 -23 0 -99 -70 -472 -433 -306 -298 -1462 -1449 -1485 -1480 -8 -10 -10
-17 -5 -16 8 3 128 -9 164 -16 8 -1 42 -6 75 -9 33 -4 71 -9 85 -11 14 -2 48
-6 75 -10 28 -3 67 -8 88 -11 57 -8 96 -13 157 -19 30 -4 94 -12 143 -19 l87
-13 159 166 c150 157 479 486 602 603 113 108 275 258 313 290 22 18 54 47 72
63 17 17 49 44 70 60 21 17 55 44 75 60 105 84 246 168 304 179 11 3 52 12 90
21 72 18 81 19 200 31 124 12 480 5 585 -11 14 -2 57 -6 95 -10 39 -3 90 -9
115 -12 25 -3 56 -6 70 -8 49 -5 136 -16 164 -21 16 -3 54 -7 85 -10 31 -3 70
-7 86 -9 185 -23 337 -23 540 0 129 14 302 66 433 130 64 31 199 110 212 125
3 3 28 23 55 45 51 40 148 135 199 194 79 92 185 274 231 396 22 58 18 45 49
168 23 94 25 104 27 110 18 84 15 357 -6 457 -2 14 -7 39 -11 55 -10 50 -54
198 -71 235 -44 99 -90 188 -115 225 -95 134 -155 204 -250 290 -84 76 -178
145 -197 145 -6 0 -11 5 -11 10 0 6 -6 10 -14 10 -7 0 -19 7 -26 15 -7 9 -15
13 -18 10 -3 -3 -12 1 -21 8 -34 29 -247 107 -347 127 -27 5 -60 12 -74 15
-65 13 -253 23 -318 15z"/>
</g>
</svg>
